<svg xmlns="http://www.w3.org/2000/svg" viewBox="0 0 2390 1190" width="100%" height="100%">
      <style>
        .frame-bg { fill: #c29b27; }
        .glass-fixed { fill: rgba(40, 100, 180, 0.6); stroke: #000; stroke-width: 2; }
        .glass-sash { fill: rgba(40, 150, 70, 0.6); stroke: #000; stroke-width: 2; }
        .glass-highlight { fill: url(#glow); opacity: 0.15; }
        .sash { fill: none; stroke: #c29b27; stroke-width: 24; }
        .sash-door { fill: none; stroke: #c29b27; stroke-width: 30; }
        .opening { fill: none; stroke: #FFFFFF; stroke-width: 8; stroke-dasharray: 14,14; stroke-linecap: round; stroke-linejoin: round; }
        .slide-arrow { fill: none; stroke: #FFFFFF; stroke-width: 10; stroke-linecap: round; stroke-linejoin: round; }
      </style>
      <defs>
        <linearGradient id="glow" x1="0%" y1="0%" x2="100%" y2="100%">
          <stop offset="0%" stop-color="#fff" stop-opacity="0.1"/>
          <stop offset="50%" stop-color="#fff" stop-opacity="0"/>
        </linearGradient>
      </defs>
    <rect class="frame-bg" x="0" y="0" width="2390" height="1190" rx="4" /><rect class="glass-sash" x="45" y="45" width="815.5" height="537.5" /><polygon class="glass-highlight" points="45,45 860.5,45 45,582.5" /><rect class="sash" x="57" y="57" width="791.5" height="513.5" /><polyline class="opening" points="74,74 452.75,553.5 831.5,74" /><rect class="glass-sash" x="45" y="607.5" width="815.5" height="537.5" /><polygon class="glass-highlight" points="45,607.5 860.5,607.5 45,1145" /><rect class="sash" x="57" y="619.5" width="791.5" height="513.5" /><polyline class="opening" points="74,636.5 452.75,1116 831.5,636.5" /><rect class="glass-fixed" x="885.5" y="45" width="1459.5" height="1100" /><polygon class="glass-highlight" points="885.5,45 2345,45 885.5,1145" /></svg>