<svg xmlns="http://www.w3.org/2000/svg" viewBox="0 0 1790 1790" width="100%" height="100%">
        <style>
          .frame-bg { fill: #c9a05b; } /* Yellow Anglo Gold Frame */
          .glass { fill: #0f1012; stroke: #000; stroke-width: 2; }
          .glass-highlight { fill: url(#glow); opacity: 0.15; }
          .sash { fill: none; stroke: #c9a05b; stroke-width: 24; }
          .opening { fill: none; stroke: rgba(255,255,255,0.4); stroke-width: 6; stroke-dasharray: 12, 12; stroke-linecap: round; stroke-linejoin: round; }
        </style>
        <defs>
          <linearGradient id="glow" x1="0%" y1="0%" x2="100%" y2="100%">
            <stop offset="0%" stop-color="#fff" stop-opacity="0.1"/>
            <stop offset="50%" stop-color="#fff" stop-opacity="0"/>
          </linearGradient>
        </defs>
      <rect class="frame-bg" x="0" y="0" width="1790" height="1790" rx="4" /><rect class="glass" x="45" y="45" width="515.5" height="1115.5" /><polygon class="glass-highlight" points="45,45 560.5,45 45,1160.5" /><rect class="sash" x="57" y="57" width="491.5" height="1091.5" /><polyline class="opening" points="81,81 524.5,602.75 81,1124.5" /><rect class="glass" x="45" y="1185.5" width="515.5" height="559.5" /><polygon class="glass-highlight" points="45,1185.5 560.5,1185.5 45,1745" /><rect class="glass" x="585.5" y="45" width="619" height="1115.5" /><polygon class="glass-highlight" points="585.5,45 1204.5,45 585.5,1160.5" /><rect class="glass" x="585.5" y="1185.5" width="619" height="559.5" /><polygon class="glass-highlight" points="585.5,1185.5 1204.5,1185.5 585.5,1745" /><rect class="glass" x="1229.5" y="45" width="515.5" height="1115.5" /><polygon class="glass-highlight" points="1229.5,45 1745,45 1229.5,1160.5" /><rect class="sash" x="1241.5" y="57" width="491.5" height="1091.5" /><polyline class="opening" points="1709,81 1265.5,602.75 1709,1124.5" /><rect class="glass" x="1229.5" y="1185.5" width="515.5" height="559.5" /><polygon class="glass-highlight" points="1229.5,1185.5 1745,1185.5 1229.5,1745" /></svg>