<svg xmlns="http://www.w3.org/2000/svg" viewBox="0 0 1790 1490" width="100%" height="100%">
        <style>
          .frame-bg { fill: #c9a05b; } /* Yellow Anglo Gold Frame */
          .glass { fill: #0f1012; stroke: #000; stroke-width: 2; }
          .glass-highlight { fill: url(#glow); opacity: 0.15; }
          .sash { fill: none; stroke: #c9a05b; stroke-width: 24; }
          .opening { fill: none; stroke: rgba(255,255,255,0.4); stroke-width: 6; stroke-dasharray: 12, 12; stroke-linecap: round; stroke-linejoin: round; }
        </style>
        <defs>
          <linearGradient id="glow" x1="0%" y1="0%" x2="100%" y2="100%">
            <stop offset="0%" stop-color="#fff" stop-opacity="0.1"/>
            <stop offset="50%" stop-color="#fff" stop-opacity="0"/>
          </linearGradient>
        </defs>
      <rect class="frame-bg" x="0" y="0" width="1790" height="1490" rx="4" /><rect class="glass" x="45" y="45" width="815.5" height="515.5" /><polygon class="glass-highlight" points="45,45 860.5,45 45,560.5" /><rect class="sash" x="57" y="57" width="791.5" height="491.5" /><polyline class="opening" points="81,81 452.75,524.5 824.5,81" /><rect class="glass" x="45" y="585.5" width="815.5" height="532" /><polygon class="glass-highlight" points="45,585.5 860.5,585.5 45,1117.5" /><rect class="sash" x="57" y="597.5" width="791.5" height="508" /><polyline class="opening" points="81,621.5 452.75,1081.5 824.5,621.5" /><rect class="glass" x="45" y="1142.5" width="815.5" height="302.5" /><polygon class="glass-highlight" points="45,1142.5 860.5,1142.5 45,1445" /><rect class="glass" x="885.5" y="45" width="859.5" height="1400" /><polygon class="glass-highlight" points="885.5,45 1745,45 885.5,1445" /></svg>