<svg xmlns="http://www.w3.org/2000/svg" viewBox="0 0 2390 1490" width="100%" height="100%">
      <style>
        .frame-bg { fill: #c29b27; }
        .glass-fixed { fill: rgba(40, 100, 180, 0.6); stroke: #000; stroke-width: 2; }
        .glass-sash { fill: rgba(40, 150, 70, 0.6); stroke: #000; stroke-width: 2; }
        .glass-highlight { fill: url(#glow); opacity: 0.15; }
        .sash { fill: none; stroke: #c29b27; stroke-width: 24; }
        .sash-door { fill: none; stroke: #c29b27; stroke-width: 30; }
        .opening { fill: none; stroke: #FFFFFF; stroke-width: 8; stroke-dasharray: 14,14; stroke-linecap: round; stroke-linejoin: round; }
        .slide-arrow { fill: none; stroke: #FFFFFF; stroke-width: 10; stroke-linecap: round; stroke-linejoin: round; }
      </style>
      <defs>
        <linearGradient id="glow" x1="0%" y1="0%" x2="100%" y2="100%">
          <stop offset="0%" stop-color="#fff" stop-opacity="0.1"/>
          <stop offset="50%" stop-color="#fff" stop-opacity="0"/>
        </linearGradient>
      </defs>
    <rect class="frame-bg" x="0" y="0" width="2390" height="1490" rx="4" /><rect class="glass-sash" x="45" y="45" width="515.5" height="1115.5" /><polygon class="glass-highlight" points="45,45 560.5,45 45,1160.5" /><rect class="sash" x="57" y="57" width="491.5" height="1091.5" /><polyline class="opening" points="74,74 531.5,602.75 74,1131.5" /><rect class="glass-fixed" x="45" y="1185.5" width="515.5" height="259.5" /><polygon class="glass-highlight" points="45,1185.5 560.5,1185.5 45,1445" /><rect class="glass-fixed" x="585.5" y="45" width="1219" height="1115.5" /><polygon class="glass-highlight" points="585.5,45 1804.5,45 585.5,1160.5" /><rect class="glass-fixed" x="585.5" y="1185.5" width="1219" height="259.5" /><polygon class="glass-highlight" points="585.5,1185.5 1804.5,1185.5 585.5,1445" /><rect class="glass-sash" x="1829.5" y="45" width="515.5" height="1115.5" /><polygon class="glass-highlight" points="1829.5,45 2345,45 1829.5,1160.5" /><rect class="sash" x="1841.5" y="57" width="491.5" height="1091.5" /><polyline class="opening" points="2316,74 1858.5,602.75 2316,1131.5" /><rect class="glass-fixed" x="1829.5" y="1185.5" width="515.5" height="259.5" /><polygon class="glass-highlight" points="1829.5,1185.5 2345,1185.5 1829.5,1445" /></svg>