<svg xmlns="http://www.w3.org/2000/svg" viewBox="0 0 3590 2090" width="100%" height="100%">
      <style>
        .frame-bg { fill: #c29b27; }
        .glass-fixed { fill: rgba(40, 100, 180, 0.6); stroke: #000; stroke-width: 2; }
        .glass-sash { fill: rgba(40, 150, 70, 0.6); stroke: #000; stroke-width: 2; }
        .glass-highlight { fill: url(#glow); opacity: 0.15; }
        .sash { fill: none; stroke: #c29b27; stroke-width: 24; }
        .sash-door { fill: none; stroke: #c29b27; stroke-width: 30; }
        .opening { fill: none; stroke: #FFFFFF; stroke-width: 8; stroke-dasharray: 14,14; stroke-linecap: round; stroke-linejoin: round; }
        .slide-arrow { fill: none; stroke: #FFFFFF; stroke-width: 10; stroke-linecap: round; stroke-linejoin: round; }
      </style>
      <defs>
        <linearGradient id="glow" x1="0%" y1="0%" x2="100%" y2="100%">
          <stop offset="0%" stop-color="#fff" stop-opacity="0.1"/>
          <stop offset="50%" stop-color="#fff" stop-opacity="0"/>
        </linearGradient>
      </defs>
    <rect class="frame-bg" x="0" y="0" width="3590" height="2090" rx="4" /><rect class="glass-fixed" x="55" y="55" width="843.75" height="1980" /><polygon class="glass-highlight" points="55,55 898.75,55 55,2035" /><rect class="frame-bg" x="55" y="1170" width="843.75" height="40" /><rect class="glass-sash" x="933.75" y="55" width="843.75" height="1980" /><polygon class="glass-highlight" points="933.75,55 1777.5,55 933.75,2035" /><rect class="frame-bg" x="933.75" y="1170" width="843.75" height="40" /><rect class="sash-door" x="948.75" y="70" width="813.75" height="1950" /><path class="slide-arrow" d="M1415.625,1045 L1295.625,1045 M1320.625,1020 L1295.625,1045 L1320.625,1070" /><rect class="glass-sash" x="1812.5" y="55" width="843.75" height="1980" /><polygon class="glass-highlight" points="1812.5,55 2656.25,55 1812.5,2035" /><rect class="frame-bg" x="1812.5" y="1170" width="843.75" height="40" /><rect class="sash-door" x="1827.5" y="70" width="813.75" height="1950" /><path class="slide-arrow" d="M2174.375,1045 L2294.375,1045 M2269.375,1020 L2294.375,1045 L2269.375,1070" /><rect class="glass-fixed" x="2691.25" y="55" width="843.75" height="1980" /><polygon class="glass-highlight" points="2691.25,55 3535,55 2691.25,2035" /><rect class="frame-bg" x="2691.25" y="1170" width="843.75" height="40" /></svg>